HIERARCHY
ROOT joint_Root
{
	OFFSET 0.0 0.0 0.0
	CHANNELS 6 Xposition Yposition Zposition Zrotation Xrotation Yrotation 
	JOINT Hips
	{
		OFFSET 4.5925 91.4895 -427.239
		CHANNELS 6 Xposition Yposition Zposition Zrotation Xrotation Yrotation 
		JOINT Spine
		{
			OFFSET 15.7357 0.0 0.0
			CHANNELS 6 Xposition Yposition Zposition Zrotation Xrotation Yrotation 
			JOINT Chest
			{
				OFFSET 8.98455 -0.406207 0.0
				CHANNELS 6 Xposition Yposition Zposition Zrotation Xrotation Yrotation 
				JOINT Neck
				{
					OFFSET 16.3773 0.0 0.0
					CHANNELS 6 Xposition Yposition Zposition Zrotation Xrotation Yrotation 
					JOINT Head
					{
						OFFSET 6.45672 0.0 0.0
						CHANNELS 6 Xposition Yposition Zposition Zrotation Xrotation Yrotation 
						End Site
						{
							OFFSET 0.0 0.0 0.0
						}
					}
				}
				JOINT Shoulder_L
				{
					OFFSET 12.9942 -0.242716 4.98039
					CHANNELS 6 Xposition Yposition Zposition Zrotation Xrotation Yrotation 
					JOINT UpperArm_L
					{
						OFFSET 5.34809 0.0 0.0
						CHANNELS 6 Xposition Yposition Zposition Zrotation Xrotation Yrotation 
						JOINT LowerArm_L
						{
							OFFSET 24.3286 1.87007e-05 0.0
							CHANNELS 6 Xposition Yposition Zposition Zrotation Xrotation Yrotation 
							JOINT Hand_L
							{
								OFFSET 22.2916 0.0 0.0
								CHANNELS 6 Xposition Yposition Zposition Zrotation Xrotation Yrotation 
								End Site
								{
									OFFSET 0.0 0.0 0.0
								}
							}
						}
					}
				}
				JOINT Shoulder_R
				{
					OFFSET 12.9945 -0.242716 -4.98039
					CHANNELS 6 Xposition Yposition Zposition Zrotation Xrotation Yrotation 
					JOINT UpperArm_R
					{
						OFFSET -5.34813 0.0 0.0
						CHANNELS 6 Xposition Yposition Zposition Zrotation Xrotation Yrotation 
						JOINT LowerArm_R
						{
							OFFSET -24.3289 0.000322201 0.0
							CHANNELS 6 Xposition Yposition Zposition Zrotation Xrotation Yrotation 
							JOINT Hand_R
							{
								OFFSET -22.2915 -0.000108084 0.0
								CHANNELS 6 Xposition Yposition Zposition Zrotation Xrotation Yrotation 
								End Site
								{
									OFFSET 0.0 0.0 0.0
								}
							}
						}
					}
				}
			}
		}
		JOINT UpperLeg_L
		{
			OFFSET -2.19248 -6.46944 0.0
			CHANNELS 6 Xposition Yposition Zposition Zrotation Xrotation Yrotation 
			JOINT LowerLeg_L
			{
				OFFSET 39.0811 0.0 -1.23785e-05
				CHANNELS 6 Xposition Yposition Zposition Zrotation Xrotation Yrotation 
				JOINT Foot_L
				{
					OFFSET 40.9854 0.0 -1.26872e-05
					CHANNELS 6 Xposition Yposition Zposition Zrotation Xrotation Yrotation 
					JOINT Toes_L
					{
						OFFSET 11.7543 0.0 0.0
						CHANNELS 6 Xposition Yposition Zposition Zrotation Xrotation Yrotation 
						End Site
						{
							OFFSET 0.0 0.0 0.0
						}
					}
				}
			}
		}
		JOINT UpperLeg_R
		{
			OFFSET -2.19251 6.46944 0.0
			CHANNELS 6 Xposition Yposition Zposition Zrotation Xrotation Yrotation 
			JOINT LowerLeg_R
			{
				OFFSET -39.0811 -0.00228153 -0.0401928
				CHANNELS 6 Xposition Yposition Zposition Zrotation Xrotation Yrotation 
				JOINT Foot_R
				{
					OFFSET -40.9854 0.0 0.0
					CHANNELS 6 Xposition Yposition Zposition Zrotation Xrotation Yrotation 
					JOINT Toes_R
					{
						OFFSET -11.7543 0.0 0.0
						CHANNELS 6 Xposition Yposition Zposition Zrotation Xrotation Yrotation 
						End Site
						{
							OFFSET 0.0 0.0 0.0
						}
					}
				}
			}
		}
	}
}
MOTION
Frames:	4
Frame Time:	0.0333333
0.000000 0.000000 0.000000 0.000000 0.000000 -0.000000 2.663150 90.420300 -0.267681 90.575100 -1.668010 14.880300 15.735700 0.000005 -0.000001 88.167100 84.040600 -88.933100 8.984550 -0.406207 -0.000000 4.144880 -0.356438 -1.517350 16.377300 -0.000001 -0.000001 25.815600 -5.076610 0.713039 6.456720 -0.000001 -0.000000 16.494800 -5.914250 -4.157780 12.994200 -0.242716 4.980390 -86.238200 -9.438160 -68.151400 5.348090 -0.000007 -0.000001 -26.421800 -26.825300 -94.446700 24.328600 0.000019 0.000005 28.687100 16.749200 -62.226000 22.291600 -0.000001 0.000005 30.972300 5.233410 1.867100 12.994500 -0.242716 -4.980390 91.853200 -6.361430 -73.721400 -5.348130 -0.000001 -0.000004 -26.894800 -31.077600 -88.683400 -24.328900 0.000322 -0.000009 9.918840 6.022030 -59.041900 -22.291500 -0.000108 -0.000004 28.844500 5.486450 -5.997010 -2.192480 -6.469440 -0.000000 -177.373000 -12.805000 4.072410 39.081100 -0.000007 -0.000012 -0.109839 0.175393 32.056900 40.985400 -0.000006 -0.000013 2.864910 4.309090 -71.466300 11.754300 -0.000000 0.000003 -0.000147 -0.001428 -16.631800 -2.192510 6.469440 -0.000001 169.651000 18.195800 -175.077000 -39.081100 -0.002282 -0.040193 -0.236743 0.381483 32.179700 -40.985400 0.000008 0.000006 0.581795 11.228800 -70.869900 -11.754300 -0.000006 -0.000006 -0.003374 -0.044765 -18.393800
0.000000 0.000000 0.000000 0.000000 0.000000 -0.000000 2.775600 90.450900 -0.457864 90.643600 -1.709610 14.717900 15.735700 0.000005 -0.000001 87.941600 83.999600 -88.759100 8.984550 -0.406207 -0.000000 4.224710 -0.405111 -1.618270 16.377300 -0.000001 -0.000001 25.974400 -5.088070 0.602570 6.456720 -0.000001 -0.000000 16.526400 -5.872140 -4.175600 12.994200 -0.242716 4.980390 -86.247400 -9.364590 -68.046000 5.348090 -0.000007 -0.000001 -25.293500 -27.820200 -92.685300 24.328600 0.000019 0.000005 28.782600 17.023600 -61.945700 22.291600 -0.000001 0.000005 31.104800 5.239530 1.707850 12.994500 -0.242716 -4.980390 91.880100 -6.403490 -73.599700 -5.348130 -0.000001 -0.000004 -26.751600 -31.722900 -87.700100 -24.328900 0.000322 -0.000009 9.506240 6.016430 -57.959900 -22.291500 -0.000108 -0.000004 28.530000 5.483750 -5.892750 -2.192480 -6.469440 -0.000000 -177.536000 -13.017900 3.831480 39.081100 -0.000007 -0.000012 -0.101262 0.162443 31.938300 40.985400 -0.000006 -0.000013 2.989230 4.402590 -71.291900 11.754300 -0.000000 0.000003 -0.000149 -0.001441 -16.632400 -2.192510 6.469440 -0.000001 169.669000 18.088800 -175.416000 -39.081100 -0.002282 -0.040193 -0.233624 0.377013 32.146300 -40.985400 0.000008 0.000006 0.497505 11.133400 -70.677700 -11.754300 -0.000006 -0.000006 -0.003550 -0.046677 -18.471600
0.000000 0.000000 0.000000 0.000000 0.000000 -0.000000 2.899070 90.475000 -0.636624 90.712600 -1.813580 14.527700 15.735700 0.000005 -0.000001 87.720300 83.962100 -88.590400 8.984550 -0.406207 -0.000000 4.297560 -0.453262 -1.721350 16.377300 -0.000001 -0.000001 26.141300 -5.055730 0.587527 6.456720 -0.000001 -0.000000 16.498600 -5.792080 -4.282790 12.994200 -0.242716 4.980390 -86.286200 -9.189630 -67.881300 5.348090 -0.000007 -0.000001 -24.241400 -29.021800 -90.262600 24.328600 0.000019 0.000005 28.542400 17.369800 -61.238900 22.291600 -0.000001 0.000005 31.165400 5.239810 1.700310 12.994500 -0.242716 -4.980390 91.897400 -6.399000 -73.446100 -5.348130 -0.000001 -0.000004 -26.946300 -32.441500 -86.367800 -24.328900 0.000322 -0.000009 9.010330 6.046800 -56.406600 -22.291500 -0.000108 -0.000004 28.648300 5.477180 -5.641250 -2.192480 -6.469440 -0.000000 -177.731000 -13.181600 3.547580 39.081100 -0.000007 -0.000012 -0.095236 0.153321 31.846900 40.985400 -0.000006 -0.000013 3.103140 4.433050 -71.134400 11.754300 -0.000000 0.000003 -0.000134 -0.001324 -16.628000 -2.192510 6.469440 -0.000001 169.670000 17.992100 -175.799000 -39.081100 -0.002282 -0.040193 -0.230118 0.371543 32.138700 -40.985400 0.000008 0.000006 0.430963 11.142700 -70.496700 -11.754300 -0.000006 -0.000006 -0.003466 -0.045767 -18.434500
0.000000 0.000000 0.000000 0.000000 0.000000 -0.000000 3.032950 90.499200 -0.780612 90.760700 -2.029900 14.330400 15.735700 0.000005 -0.000001 87.701600 83.926700 -88.621700 8.984550 -0.406207 -0.000000 4.367790 -0.459058 -1.820690 16.377300 -0.000001 -0.000001 26.243300 -5.056480 0.630602 6.456720 -0.000001 -0.000000 16.500900 -5.815030 -4.285070 12.994200 -0.242716 4.980390 -86.342300 -8.951330 -67.664600 5.348090 -0.000007 -0.000001 -23.516800 -30.279100 -87.457900 24.328600 0.000019 0.000005 27.836300 17.711400 -60.052600 22.291600 -0.000001 0.000005 30.851900 5.242220 1.637130 12.994500 -0.242716 -4.980390 91.875900 -6.282620 -73.337500 -5.348130 -0.000001 -0.000004 -27.389500 -33.300900 -84.643400 -24.328900 0.000322 -0.000009 8.301940 5.969260 -54.527000 -22.291500 -0.000108 -0.000004 28.618200 5.479190 -5.717730 -2.192480 -6.469440 -0.000000 -177.891000 -13.411600 3.300460 39.081100 -0.000007 -0.000012 -0.090884 0.146915 31.741800 40.985400 -0.000006 -0.000013 3.200440 4.404820 -71.003300 11.754300 -0.000000 0.000003 -0.000124 -0.001234 -16.624700 -2.192510 6.469440 -0.000001 169.681000 17.873400 -176.166000 -39.081100 -0.002282 -0.040193 -0.227187 0.367413 32.101100 -40.985400 0.000008 0.000006 0.374013 11.237000 -70.314300 -11.754300 -0.000006 -0.000006 -0.003446 -0.045549 -18.425700
